<svg width="22" height="23" viewBox="0 0 22 23" fill="none" xmlns="http://www.w3.org/2000/svg">
<path d="M20.8881 16.456V19.456C20.8892 19.7345 20.8322 20.0102 20.7206 20.2653C20.6091 20.5205 20.4454 20.7496 20.2402 20.9379C20.035 21.1261 19.7927 21.2695 19.5289 21.3587C19.265 21.4479 18.9855 21.4811 18.7081 21.456C15.631 21.1216 12.6751 20.0701 10.0781 18.386C7.66194 16.8507 5.61345 14.8022 4.07812 12.386C2.38809 9.77719 1.33636 6.80698 1.00812 3.71599C0.983127 3.43945 1.01599 3.16075 1.10462 2.89761C1.19324 2.63447 1.33569 2.39267 1.52288 2.18761C1.71008 1.98254 1.93792 1.81869 2.19191 1.70651C2.44589 1.59432 2.72046 1.53625 2.99812 1.53599H5.99812C6.48342 1.53121 6.95391 1.70306 7.32188 2.01952C7.68985 2.33597 7.93019 2.77543 7.99812 3.25599C8.12474 4.21605 8.35957 5.15871 8.69812 6.06599C8.83266 6.42391 8.86178 6.8129 8.78202 7.18687C8.70227 7.56083 8.51698 7.9041 8.24812 8.17599L6.97812 9.44599C8.40167 11.9495 10.4746 14.0224 12.9781 15.446L14.2481 14.176C14.52 13.9071 14.8633 13.7218 15.2372 13.6421C15.6112 13.5623 16.0002 13.5914 16.3581 13.726C17.2654 14.0645 18.2081 14.2994 19.1681 14.426C19.6539 14.4945 20.0975 14.7392 20.4146 15.1135C20.7318 15.4878 20.9003 15.9656 20.8881 16.456Z" stroke="#4945EC" stroke-width="2" stroke-linecap="round" stroke-linejoin="round"/>
</svg>
